HIERARCHY
ROOT Hips
{
	OFFSET 0.000000 0.000000 0.000000
	CHANNELS 6 Xposition Yposition Zposition Zrotation Yrotation Xrotation 
	JOINT LeftUpLeg_virtual
	{
		OFFSET 0.000000 0.000000 0.000000
		CHANNELS 3 Zrotation Yrotation Xrotation
		JOINT LeftUpLeg
		{
			OFFSET 10.205400 -3.823500 0.155100
			CHANNELS 3 Zrotation Yrotation Xrotation
			JOINT LeftLeg
			{
				OFFSET 0.708757 -12.982077 0.567790
				CHANNELS 3 Zrotation Yrotation Xrotation
				JOINT LeftFoot
				{
					OFFSET -0.708756 -10.717838 -2.184338
					CHANNELS 3 Zrotation Yrotation Xrotation
					JOINT LeftToeBase
					{
						OFFSET 0.108149 -7.191104 7.560241
						CHANNELS 3 Zrotation Yrotation Xrotation
						End Site
						{
							OFFSET 0.000000 0.000000 0.000000
						}
					}
				}
			}
		}
	}
	JOINT RightUpLeg_virtual
	{
		OFFSET 0.000000 0.000000 0.000000
		CHANNELS 3 Zrotation Yrotation Xrotation
		JOINT RightUpLeg
		{
			OFFSET -10.205400 -3.823500 0.005500
			CHANNELS 3 Zrotation Yrotation Xrotation
			JOINT RightLeg
			{
				OFFSET -0.708756 -12.982134 0.610632
				CHANNELS 3 Zrotation Yrotation Xrotation
				JOINT RightFoot
				{
					OFFSET 0.708754 -10.717769 -1.945823
					CHANNELS 3 Zrotation Yrotation Xrotation
					JOINT RightToeBase
					{
						OFFSET -0.108140 -7.191069 7.372968
						CHANNELS 3 Zrotation Yrotation Xrotation
						End Site
						{
							OFFSET 0.000000 0.000000 0.000000
						}
					}
				}
			}
		}
	}
	JOINT Spine_virtual
	{
		OFFSET 0.000000 0.000000 0.000000
		CHANNELS 3 Zrotation Yrotation Xrotation
		JOINT Spine
		{
			OFFSET 0.000000 6.876099 0.125700
			CHANNELS 3 Zrotation Yrotation Xrotation
			JOINT Spine1
			{
				OFFSET 0.000000 8.022060 0.146608
				CHANNELS 3 Zrotation Yrotation Xrotation
				JOINT Spine2
				{
					OFFSET 0.000000 9.168068 0.167552
					CHANNELS 3 Zrotation Yrotation Xrotation
					JOINT Neck_virtual
					{
						OFFSET 0.000000 0.000000 0.000000
						CHANNELS 3 Zrotation Yrotation Xrotation
						JOINT Neck
						{
							OFFSET 0.000000 10.314075 0.188496
							CHANNELS 3 Zrotation Yrotation Xrotation
							JOINT Head
							{
								OFFSET 0.000000 7.643700 -2.377400
								CHANNELS 3 Zrotation Yrotation Xrotation
								End Site
								{
									OFFSET 0.000000 0.000000 0.000000
								}
							}
						}
					}
					JOINT LeftShoulder_virtual
					{
						OFFSET 0.000000 0.000000 0.000000
						CHANNELS 3 Zrotation Yrotation Xrotation
						JOINT LeftShoulder
						{
							OFFSET 4.392200 8.824978 0.174984
							CHANNELS 3 Zrotation Yrotation Xrotation
							JOINT LeftArm
							{
								OFFSET 8.771219 -2.981674 -0.026999
								CHANNELS 3 Zrotation Yrotation Xrotation
								JOINT LeftForeArm
								{
									OFFSET 8.512804 0.000000 -0.000000
									CHANNELS 3 Zrotation Yrotation Xrotation
									JOINT LeftHand
									{
										OFFSET 18.484802 0.000000 -0.000000
										CHANNELS 3 Zrotation Yrotation Xrotation
										End Site
										{
											OFFSET 0.000000 0.000000 0.000000
										}
									}
								}
							}
						}
					}
					JOINT RightShoulder_virtual
					{
						OFFSET 0.000000 0.000000 0.000000
						CHANNELS 3 Zrotation Yrotation Xrotation
						JOINT RightShoulder
						{
							OFFSET -4.392200 8.824993 0.141379
							CHANNELS 3 Zrotation Yrotation Xrotation
							JOINT RightArm
							{
								OFFSET -8.771282 -2.981682 -0.094208
								CHANNELS 3 Zrotation Yrotation Xrotation
								JOINT RightForeArm
								{
									OFFSET -8.494598 0.000000 0.000000
									CHANNELS 3 Zrotation Yrotation Xrotation
									JOINT RightHand
									{
										OFFSET -18.483803 0.000000 0.000001
										CHANNELS 3 Zrotation Yrotation Xrotation
										End Site
										{
											OFFSET 0.000000 0.000000 0.000000
										}
									}
								}
							}
						}
					}
				}
			}
		}
	}
}
MOTION
Frames: 10
Frame Time: 0.033333
-45.756618 36.016685 -7.871432 -2.828559 35.503474 -2.453680 1.921710 -8.515761 17.350876 4.881786 10.607735 -22.955289 7.794789 -18.362380 41.775387 -11.511959 -6.001581 1.589414 0.000000 0.000000 0.000000 3.629947 -6.491120 18.114932 2.124527 -5.938897 -24.974628 5.852258 10.863173 21.523808 11.160784 -3.179233 22.785030 0.000000 0.000000 0.000000 3.955179 0.764675 3.568426 -0.270168 4.193124 -15.153917 0.590627 -1.561998 8.339943 -0.237026 -0.470679 -0.106264 -0.426394 1.860908 15.201737 23.723364 -5.141990 11.319305 0.000000 0.000000 0.000000 1.151199 2.115760 13.888622 -6.933147 -9.750032 -5.902006 -74.829449 34.121480 29.578588 11.979357 -15.252069 17.449252 0.000000 0.000000 0.000000 -4.050352 3.883422 10.310257 6.105626 6.476347 -1.182228 63.111590 -27.995472 29.950461 -154.225330 51.832195 -144.066407 0.000000 0.000000 0.000000 
-46.034073 36.232601 -7.459014 -1.541110 38.139411 -1.122306 -0.118351 -7.616493 16.842746 6.074099 15.909170 -23.286569 5.919971 -16.686179 39.285131 -11.497936 -3.294274 1.720738 0.000000 0.000000 0.000000 4.076753 -4.992733 16.471319 2.259063 -8.819888 -21.645235 4.502306 9.143061 20.236041 11.107521 -0.255398 22.372151 0.000000 0.000000 0.000000 2.295247 0.958350 1.830104 0.047405 5.402050 -15.356287 0.123507 -1.655948 8.699059 -0.054230 -0.295505 -0.016308 -0.550460 1.533487 15.293360 23.795751 -4.338140 11.633342 0.000000 0.000000 0.000000 0.796270 1.970799 13.750088 -5.470188 -8.696357 -6.222927 -78.212653 26.624690 24.867136 11.857803 -13.349982 17.748453 0.000000 0.000000 0.000000 -4.304674 3.708450 10.230513 4.177544 2.832557 -2.055178 63.857221 -24.016214 32.193875 -160.007522 44.829701 -153.180024 0.000000 0.000000 0.000000 
-46.118580 36.619190 -7.090591 -0.319515 39.561002 0.385123 -1.765966 -5.014097 16.645371 5.503150 20.284482 -24.727248 3.436726 -14.840422 34.788325 -11.789293 -1.473125 2.068944 0.000000 0.000000 0.000000 4.768865 -2.203169 16.995901 1.891755 -13.630990 -21.050901 2.841676 6.450492 18.918777 10.261917 0.890428 23.846748 0.000000 0.000000 0.000000 0.842556 1.818477 0.811547 0.225780 6.162033 -16.192719 -0.210222 -1.929467 9.153823 -0.020922 -0.158119 0.118421 -0.791997 1.111036 15.507543 23.263672 -4.225170 12.773581 0.000000 0.000000 0.000000 0.345424 1.715756 13.649899 -3.736588 -7.261077 -6.288927 -80.015045 19.940725 21.908216 11.306576 -14.742045 17.556926 0.000000 0.000000 0.000000 -4.361368 3.453199 10.534506 3.587544 -0.027715 -3.132267 64.287851 -20.328081 32.362577 -162.228918 41.176922 -157.961648 0.000000 0.000000 0.000000 
-46.016773 36.955517 -6.867029 -0.610892 40.639677 0.558102 -2.013249 -2.496984 16.594537 3.857305 23.616552 -26.847150 1.546550 -12.862414 29.537020 -11.084605 0.030745 2.914087 0.000000 0.000000 0.000000 5.308180 0.292227 18.230495 4.259092 -19.527943 -21.728813 1.485168 5.365211 17.649731 9.097108 0.494760 25.860648 0.000000 0.000000 0.000000 0.348514 2.964209 0.611830 0.338956 6.736927 -17.081717 -0.299510 -2.339398 9.533088 -0.027545 -0.142136 0.173569 -0.827826 0.739175 15.614606 22.591564 -4.310648 14.725096 0.000000 0.000000 0.000000 0.330047 1.272726 13.513907 -2.077779 -6.068056 -6.239060 -80.485945 15.829153 20.815997 10.093175 -18.736903 17.447348 0.000000 0.000000 0.000000 -4.297091 2.935335 10.570702 4.087456 -2.234729 -4.217420 64.537057 -17.102859 29.678480 -162.924081 40.488733 -160.800316 0.000000 0.000000 0.000000 
-45.909946 37.234623 -6.729722 0.336650 40.955959 1.048882 -2.762360 -0.632422 16.694306 2.158892 25.052041 -28.892626 0.042498 -10.915056 24.472054 -9.872620 0.572519 5.037210 0.000000 0.000000 0.000000 6.621471 1.439674 18.975020 0.684641 -22.395198 -21.040700 2.351364 3.120088 17.903099 12.185385 3.643482 26.402439 0.000000 0.000000 0.000000 -0.268075 3.152476 1.039321 -0.337767 7.236226 -17.546747 -0.207273 -2.328199 9.911309 0.039754 0.073122 0.167779 -0.564250 0.589103 15.536288 21.481729 -4.411325 17.426408 0.000000 0.000000 0.000000 0.743544 1.199243 12.756142 -0.968798 -5.084929 -6.022320 -80.032578 13.340572 21.331475 8.992754 -22.942749 17.292019 0.000000 0.000000 0.000000 -3.644227 2.578857 10.253219 4.616057 -3.066593 -4.992548 65.120936 -14.582807 24.208776 -163.889761 41.809118 -163.166498 0.000000 0.000000 0.000000 
-45.865829 37.384285 -6.678936 1.106846 41.100066 1.195028 -2.967505 -0.293331 16.986754 0.680325 26.028142 -30.718400 -1.154742 -10.095918 20.828570 -8.246441 0.163467 7.566515 0.000000 0.000000 0.000000 7.343882 1.347039 18.658120 -0.816610 -25.762403 -20.428650 0.541531 -0.452968 19.433570 15.582626 4.571977 25.373885 0.000000 0.000000 0.000000 -0.277936 2.821221 1.622902 -1.279949 7.783129 -17.740624 -0.052221 -2.253646 10.455921 0.026037 0.052301 0.105005 -0.128250 0.562477 15.445281 19.979565 -3.917405 20.404406 0.000000 0.000000 0.000000 1.443410 1.057036 11.949956 -0.757277 -4.939645 -5.664051 -79.017584 11.590189 22.625044 8.439471 -25.312302 17.172240 0.000000 0.000000 0.000000 -3.057361 2.492717 9.861094 4.727206 -2.775400 -5.931883 66.957205 -13.786406 18.281602 -165.429217 44.565253 -165.250840 0.000000 0.000000 0.000000 
-45.768738 37.432568 -6.754303 1.264661 40.884396 0.876564 -2.748874 -0.857181 17.557951 -0.251716 26.760690 -32.120785 -1.646574 -9.893961 18.292993 -6.612679 -0.996077 10.323052 0.000000 0.000000 0.000000 7.674795 -0.265110 17.198556 -2.191994 -28.315039 -19.699297 -0.551947 0.239868 21.666414 17.125998 4.982419 23.004579 0.000000 0.000000 0.000000 0.084404 1.881130 2.462950 -2.106653 8.478035 -17.762723 0.344147 -1.934631 10.849101 0.093304 0.166761 0.084941 0.274954 0.798778 15.252562 18.364214 -3.463895 22.924483 0.000000 0.000000 0.000000 2.036253 1.090282 11.094106 -1.366868 -5.375871 -5.254192 -77.717478 9.683589 23.576001 8.176688 -25.065379 17.435158 0.000000 0.000000 0.000000 -2.291298 2.839848 9.174664 3.445207 -1.779758 -6.522756 68.882615 -14.245522 12.760871 -167.059378 47.313701 -166.800842 0.000000 0.000000 0.000000 
-45.619247 37.457932 -6.769255 1.371254 40.294155 0.921864 -2.673742 -1.388502 18.616331 -1.561134 27.443217 -33.465786 -1.381397 -8.908603 15.465611 -5.298751 -2.512334 13.011283 0.000000 0.000000 0.000000 7.867896 -2.623102 15.183857 -3.804496 -29.525275 -18.621467 -1.594874 0.142365 23.340580 18.203672 5.253509 21.102955 0.000000 0.000000 0.000000 0.443989 1.160282 3.225044 -2.836614 9.245061 -18.004447 0.597945 -1.522765 11.067824 0.090440 0.397084 0.050665 0.524526 0.983590 15.092135 16.818140 -2.809101 24.524573 0.000000 0.000000 0.000000 2.413299 1.371457 10.556416 -2.361569 -6.152644 -4.962997 -77.192756 7.521651 23.414085 8.855467 -22.560830 17.238156 0.000000 0.000000 0.000000 -1.970814 3.093137 8.839057 1.135251 -0.520362 -7.245609 71.969471 -15.508906 7.426585 -167.692072 50.630560 -167.132680 0.000000 0.000000 0.000000 
-45.332230 37.424732 -6.745846 1.806474 40.530233 1.008358 -3.547710 -2.395159 20.109728 -4.044416 29.709858 -35.126130 -0.541912 -8.541657 13.368376 -3.934559 -3.588669 13.508162 0.000000 0.000000 0.000000 8.073991 -4.329919 15.878928 -5.016307 -28.060091 -19.286262 -2.216245 -0.068447 23.752430 19.183235 5.574702 19.661429 0.000000 0.000000 0.000000 0.467217 0.480229 4.390716 -3.351167 9.853919 -18.417072 0.506280 -1.132212 11.191469 0.103778 0.651270 -0.016041 0.476294 1.022379 14.963314 15.833857 -2.139760 25.182682 0.000000 0.000000 0.000000 2.258579 1.577027 10.594414 -3.124174 -7.112004 -4.845875 -77.363476 5.878588 21.888116 9.684313 -19.300668 17.450208 0.000000 0.000000 0.000000 -2.026648 3.182416 8.705815 -1.736367 0.384420 -7.867469 75.526121 -16.749185 2.744406 -166.530804 54.290633 -165.633576 0.000000 0.000000 0.000000 
-44.947956 37.308846 -6.882118 2.591284 41.739286 1.929632 -4.880759 -3.469395 21.416941 -7.284138 31.872432 -37.478354 0.943768 -7.474226 11.700996 -3.147128 -4.139367 12.848839 0.000000 0.000000 0.000000 8.085447 -5.351534 17.166364 -6.194824 -25.107149 -20.123860 -2.547149 -0.425417 22.426042 19.998338 6.006949 18.758052 0.000000 0.000000 0.000000 0.040958 0.275638 5.288402 -3.643767 10.085156 -19.145058 0.045930 -1.190742 11.247881 0.209978 0.565771 0.037315 0.118072 1.029144 14.972985 15.213560 -1.594119 25.194614 0.000000 0.000000 0.000000 1.883066 1.805689 10.714973 -3.817326 -7.448215 -4.668675 -77.608912 5.034676 19.550056 10.630573 -15.978469 17.487306 0.000000 0.000000 0.000000 -2.501079 3.358089 9.095987 -4.520319 1.030954 -8.459926 79.419657 -17.226217 -0.707899 -163.817033 57.647712 -162.496593 0.000000 0.000000 0.000000 
